<?xml version="1.0" encoding="iso-8859-1"?>
<!-- Uploaded to: SVG Repo, www.svgrepo.com, Generator: SVG Repo Mixer Tools -->
<svg fill="#000000" height="800px" width="800px" version="1.1" id="Layer_1" xmlns="http://www.w3.org/2000/svg" xmlns:xlink="http://www.w3.org/1999/xlink" 
	 viewBox="0 0 511.998 511.998" xml:space="preserve">
<g>
	<g>
		<path d="M365.469,481.642c-4.289-21.681-14.856-41.441-30.556-57.141c-3.353-3.353-8.788-3.353-12.14,0
			c-3.353,3.353-3.353,8.788,0,12.14c13.286,13.286,22.226,29.999,25.854,48.333c0.809,4.089,4.396,6.92,8.412,6.92
			c0.553,0,1.114-0.054,1.676-0.165C363.365,490.81,366.389,486.293,365.469,481.642z"/>
	</g>
</g>
<g>
	<g>
		<path d="M189.225,424.502c-3.35-3.353-8.786-3.353-12.139,0c-15.7,15.7-26.267,35.459-30.557,57.141
			c-0.92,4.651,2.104,9.167,6.754,10.088c0.563,0.111,1.123,0.165,1.676,0.165c4.015,0,7.603-2.832,8.412-6.92
			c3.627-18.333,12.568-35.047,25.854-48.333C192.577,433.289,192.577,427.853,189.225,424.502z"/>
	</g>
</g>
<g>
	<g>
		<path d="M433.416,180.06c-2.342,0-4.657,0.135-6.948,0.398c14.27-30.881,31.031-78.231,13.41-101.912
			c-28.288-38-75.667-66.12-129.989-77.15C305.322,0.469,300.632,0,295.947,0c-14.025,0-27.708,4.168-39.27,11.835
			c-0.224-0.017-0.449-0.034-0.678-0.034c-0.229,0-0.453,0.017-0.678,0.034C243.76,4.168,230.077,0,216.052,0
			c-4.685,0-9.376,0.469-13.944,1.396c-54.32,11.03-101.7,39.149-129.989,77.151c-12.21,16.408-9.836,45.763,7.055,87.252
			c1.787,4.392,6.797,6.5,11.188,4.714c4.391-1.788,6.501-6.797,4.714-11.188c-13.858-34.04-17.205-59.746-9.183-70.527
			c25.796-34.652,69.401-60.376,119.63-70.576c3.445-0.698,6.988-1.053,10.529-1.053c11.292,0,22.282,3.557,31.363,10.067v38.48
			c0,14.006-5.736,27.292-16.141,37.405l-0.195,0.19c-3.387,3.317-3.444,8.753-0.127,12.14c1.681,1.717,3.907,2.578,6.134,2.578
			c2.167,0,4.336-0.815,6.006-2.452l0.14-0.136c13.77-13.381,21.353-31.041,21.353-49.726V27.236
			c9.08-6.509,20.071-10.067,31.363-10.067c3.542,0,7.084,0.355,10.528,1.053c50.23,10.2,93.835,35.923,119.63,70.574
			c10.413,13.994,1.616,52.753-22.398,99.129c-0.121,0.066-0.243,0.133-0.365,0.2c-2.548,1.395-7.692,4.212-9.841,4.316
			c-0.119-0.19-0.287-0.498-0.48-0.971c-21.938-54.048-53.976-71.109-76.989-75.904c-24.513-5.103-50.79,1.799-66.94,17.597
			c-16.339,15.987-22.613,37.038-23.146,77.67c-0.005,0.381-0.222,0.728-0.554,0.883c-18.498,8.675-66.107,24.47-108.534-16.099
			c-0.813-0.782-1.593-1.574-2.346-2.348c-2.065-2.14-5.233-5-8.719-6.686l0.003-0.007c-0.081-0.041-0.165-0.076-0.247-0.117
			c-0.017-0.008-0.034-0.018-0.052-0.026c-0.009-0.005-0.018-0.007-0.027-0.01c-8.411-4.218-17.452-6.365-26.887-6.365
			c-33.136,0-60.093,26.957-60.093,60.093s26.957,60.093,60.093,60.093c4.688,0,9.298-0.533,13.788-1.594
			c4.274,27.114,11.831,58.079,24.826,70.648c11.051,10.69,26.782,18.474,42.909,24.117c-21.733,18.958-37.489,43.989-45.022,71.948
			c-1.234,4.577,1.478,9.289,6.056,10.523c0.747,0.201,1.499,0.298,2.239,0.298c3.785,0,7.252-2.524,8.284-6.354
			c7.615-28.256,24.771-53.113,48.463-70.426c13.612,3.452,26.167,5.522,34.924,6.704l32.27,32.19v65.115
			c0,4.741,3.844,8.585,8.585,8.585c4.741,0,8.585-3.844,8.585-8.585v-65.114l31.911-31.823c0.074-0.073,0.137-0.153,0.208-0.23
			c11.873-1.559,23.876-3.793,35.404-6.741c23.62,17.309,40.727,42.125,48.325,70.326c1.032,3.83,4.498,6.354,8.284,6.354
			c0.739,0,1.49-0.096,2.239-0.298c4.578-1.234,7.289-5.944,6.056-10.522c-7.525-27.926-23.256-52.935-44.953-71.887
			c17.327-6.133,32.469-14.148,42.84-24.179c12.996-12.569,20.553-43.536,24.826-70.648c4.492,1.06,9.1,1.594,13.788,1.594
			c33.136,0,60.093-26.957,60.093-60.093S466.551,180.06,433.416,180.06z M433.416,283.076c-3.901,0-7.723-0.525-11.424-1.551
			c1.794-15.077,2.84-30.145,2.84-41.372c0-4.734,3.85-8.585,8.585-8.585c4.734,0,8.585,3.851,8.585,8.585
			c0,4.741,3.844,8.585,8.585,8.585c4.741,0,8.585-3.844,8.585-8.585c0-14.201-11.553-25.754-25.754-25.754
			c-14.201,0-25.754,11.553-25.754,25.754c0,12.222-1.33,29.409-3.559,45.974c-4.796,35.658-12.934,62.801-21.24,70.833
			c-23.405,22.639-82.688,34.856-126.585,34.856c-4.741,0-8.585,3.844-8.585,8.585s3.844,8.585,8.585,8.585
			c4.411,0,8.967-0.11,13.626-0.331l-13.999,13.96l-30.791-30.715c-1.404-1.4-3.172-2.205-4.997-2.432l0.001-0.008
			c-14.018-1.756-27.195-4.318-39.106-7.529c-0.256-0.082-0.515-0.152-0.777-0.211c-22.789-6.228-40.85-14.846-51.098-24.759
			c-8.304-8.033-16.443-35.174-21.24-70.833c-2.229-16.565-3.559-33.751-3.559-45.974c0-14.201-11.553-25.754-25.754-25.754
			S52.83,225.951,52.83,240.153c0,4.741,3.844,8.585,8.585,8.585c4.741,0,8.585-3.844,8.585-8.585c0-4.734,3.851-8.585,8.585-8.585
			s8.585,3.851,8.585,8.585c0,11.228,1.046,26.295,2.84,41.372c-3.702,1.026-7.524,1.551-11.424,1.551
			c-23.668,0-42.923-19.255-42.923-42.923c0-23.668,19.255-42.923,42.923-42.923c6.823,0,13.359,1.566,19.425,4.652l0.005-0.008
			c0.097,0.049,0.189,0.105,0.288,0.151c0.713,0.33,2.265,1.523,3.88,3.196c0.912,0.937,1.827,1.862,2.793,2.791
			c25.139,24.039,52.111,31.094,75.116,31.092c0.523,0,1.043-0.008,1.561-0.016c-0.022,0.354-0.054,0.705-0.054,1.064
			c0,9.482,7.687,17.169,17.169,17.169c9.482,0,17.169-7.687,17.169-17.169c0-2.18-0.422-4.258-1.164-6.176
			c7.815-2.289,13.994-4.878,17.906-6.713c6.246-2.929,10.342-9.289,10.432-16.202c0.533-40.691,6.999-54.875,17.985-65.625
			c9.974-9.757,29.744-17.58,51.431-13.061c18.925,3.943,45.492,18.517,64.583,65.552c2.746,6.769,7.181,9.563,10.418,10.716
			c8.537,3.041,17.143-1.672,24.059-5.459c0.844-0.462,1.668-0.913,2.463-1.332c6.049-3.066,12.565-4.623,19.365-4.623
			c23.669,0,42.923,19.255,42.923,42.923C476.34,263.82,457.084,283.076,433.416,283.076z"/>
	</g>
</g>
<g>
	<g>
		<circle cx="313.225" cy="240.153" r="17.169"/>
	</g>
</g>
<g>
	<g>
		<path d="M331.8,183.018c-12.133-3.95-24.972-3.95-37.133,0.001c-4.509,1.465-6.978,6.308-5.511,10.817
			c1.179,3.627,4.544,5.935,8.162,5.935c0.879,0,1.773-0.136,2.654-0.422c8.687-2.821,17.854-2.823,26.513-0.005
			c4.51,1.47,9.354-0.997,10.82-5.506C338.773,189.33,336.308,184.485,331.8,183.018z"/>
	</g>
</g>
<g>
	<g>
		<path d="M273.169,248.737c-4.741,0-8.585,3.844-8.585,8.585c0,4.734-3.851,8.585-8.585,8.585c-4.734,0-8.585-3.85-8.585-8.585
			c0-4.741-3.844-8.585-8.585-8.585s-8.585,3.844-8.585,8.585c0,14.201,11.553,25.754,25.754,25.754
			c14.201,0,25.754-11.553,25.754-25.754C281.753,252.581,277.91,248.737,273.169,248.737z"/>
	</g>
</g>
<g>
	<g>
		<circle cx="221.38" cy="443.323" r="8.585"/>
	</g>
</g>
<g>
	<g>
		<circle cx="221.667" cy="477.661" r="8.585"/>
	</g>
</g>
<g>
	<g>
		<circle cx="290.63" cy="443.323" r="8.585"/>
	</g>
</g>
<g>
	<g>
		<circle cx="290.344" cy="477.661" r="8.585"/>
	</g>
</g>
</svg>