<?xml version="1.0" encoding="iso-8859-1"?>
<!-- Uploaded to: SVG Repo, www.svgrepo.com, Generator: SVG Repo Mixer Tools -->
<svg fill="#000000" height="800px" width="800px" version="1.1" id="Layer_1" xmlns="http://www.w3.org/2000/svg" xmlns:xlink="http://www.w3.org/1999/xlink" 
	 viewBox="0 0 512.002 512.002" xml:space="preserve">
<g>
	<g>
		<path d="M332.772,213.184H297.34c-4.892,0-8.858,3.966-8.858,8.858s3.966,8.858,8.858,8.858c0,9.785,7.931,17.716,17.716,17.716
			c9.784,0,17.716-7.932,17.716-17.716c4.892,0,8.858-3.966,8.858-8.858S337.665,213.184,332.772,213.184z"/>
	</g>
</g>
<g>
	<g>
		<path d="M214.663,213.184H179.23c-4.892,0-8.858,3.966-8.858,8.858s3.966,8.858,8.858,8.858c0,9.785,7.931,17.716,17.716,17.716
			c9.784,0,17.716-7.932,17.716-17.716c4.892,0,8.858-3.966,8.858-8.858S219.555,213.184,214.663,213.184z"/>
	</g>
</g>
<g>
	<g>
		<path d="M441.121,168.945c-0.659-0.156-1.343-0.248-2.05-0.248c-0.689,0-1.359,0.078-2.003,0.227
			c-18.987,0.599-36.25,9.674-47.443,24.534c-6.946-24.777-20.631-47.042-39.772-64.629c-3.5-3.216-8.915-3.096-12.269,0.27
			c-21.768,21.853-50.741,33.887-81.582,33.887s-59.815-12.034-81.582-33.887c-3.353-3.367-8.768-3.487-12.269-0.27
			c-20.289,18.642-34.448,42.542-40.948,69.114c-0.067,0.276-0.343,0.477-0.656,0.477c-4.893,0-8.858,3.965-8.858,8.858
			c0,4.893,3.965,8.858,8.858,8.858c8.503,0,15.849-5.75,17.864-13.983c5.018-20.517,15.282-39.212,29.864-54.522
			c10.042,8.854,21.212,16.039,33.167,21.426c-7.927-0.582-15.922,0.377-23.651,2.888c-4.652,1.512-7.2,6.509-5.687,11.161
			c1.216,3.743,4.689,6.124,8.422,6.124c0.907,0,1.83-0.141,2.739-0.436c8.963-2.911,18.423-2.914,27.358-0.005
			c4.654,1.516,9.652-1.029,11.165-5.681c0.79-2.426,0.468-4.943-0.673-7.013c11.231,3.035,22.936,4.607,34.886,4.607
			c11.952,0,23.657-1.573,34.888-4.609c-1.142,2.07-1.465,4.586-0.677,7.012c1.217,3.743,4.689,6.124,8.422,6.124
			c0.907,0,1.83-0.141,2.739-0.436c8.963-2.911,18.423-2.914,27.358-0.005c4.654,1.516,9.652-1.029,11.165-5.681
			c1.515-4.651-1.029-9.651-5.681-11.165c-7.722-2.515-15.72-3.472-23.662-2.884c11.957-5.388,23.129-12.574,33.172-21.429
			c14.582,15.309,24.846,34.005,29.864,54.523c2.015,8.232,9.361,13.982,17.868,13.982c3.363,0,6.435-1.904,7.932-4.915
			c7.547-15.182,22.751-24.613,39.68-24.613c24.423,0,44.291,19.868,44.291,44.291c0,22.951-17.549,41.877-39.932,44.074
			c-0.679-16.024-5.099-31.727-12.998-46.012c0.887-3.954,4.42-6.92,8.638-6.92c4.885,0,8.858,3.973,8.858,8.858
			c0,4.893,3.965,8.858,8.858,8.858c4.893,0,8.858-3.965,8.858-8.858c0-14.653-11.922-26.575-26.575-26.575
			s-26.575,11.922-26.575,26.575c0,0.044,0.006,0.085,0.006,0.129c0.002,0.183,0.014,0.365,0.027,0.547
			c0.008,0.113,0.015,0.228,0.028,0.34c0.019,0.168,0.047,0.334,0.077,0.502c0.022,0.128,0.042,0.255,0.07,0.38
			c0.031,0.142,0.071,0.283,0.109,0.424c0.04,0.146,0.079,0.293,0.126,0.437c0.038,0.117,0.084,0.233,0.128,0.348
			c0.061,0.164,0.124,0.327,0.195,0.487c0.044,0.098,0.093,0.195,0.141,0.292c0.084,0.171,0.17,0.34,0.263,0.504
			c0.02,0.035,0.035,0.072,0.055,0.107c8.628,14.646,12.776,31.187,12.007,47.848c-0.004,0.058-0.014,0.116-0.018,0.174
			c-1.374,28.515-17.064,54.354-41.97,69.118c-78.794,46.707-176.688,46.707-255.48,0c-0.952-0.565-1.907-1.173-3.052-1.916
			c-23.396-15.16-37.579-39.656-38.912-67.204c-0.004-0.07-0.015-0.137-0.02-0.206c-0.767-16.646,3.38-33.176,12.003-47.814
			c0.021-0.035,0.035-0.072,0.056-0.107c0.094-0.164,0.181-0.333,0.265-0.504c0.047-0.097,0.096-0.193,0.139-0.289
			c0.071-0.159,0.133-0.324,0.196-0.488c0.044-0.116,0.089-0.23,0.126-0.347c0.047-0.144,0.086-0.291,0.126-0.437
			c0.039-0.142,0.078-0.282,0.109-0.424c0.027-0.125,0.047-0.253,0.07-0.38c0.03-0.168,0.057-0.334,0.077-0.502
			c0.013-0.112,0.02-0.227,0.028-0.34c0.014-0.183,0.025-0.365,0.027-0.547c0.001-0.044,0.006-0.085,0.006-0.129
			c0-14.653-11.922-26.575-26.575-26.575c-14.653,0-26.575,11.922-26.575,26.575c0,4.893,3.965,8.858,8.858,8.858
			s8.858-3.965,8.858-8.858c0-4.885,3.973-8.858,8.858-8.858c4.219,0,7.752,2.966,8.639,6.92
			c-7.899,14.288-12.318,29.989-12.994,46.012c-22.385-2.196-39.935-21.123-39.935-44.075c0-24.423,19.868-44.291,44.291-44.291
			c7.489,0,14.885,1.902,21.39,5.502c1.358,0.752,2.83,1.109,4.28,1.108c3.118,0,6.142-1.649,7.759-4.571
			c2.368-4.28,0.819-9.671-3.463-12.039c-6.474-3.582-13.573-5.967-20.896-7.049c3.868-72.94,60.334-135.888,137.113-151.376
			c6.89-1.387,13.965,0.37,19.411,4.826c5.477,4.481,8.617,11.121,8.617,18.218c0,4.893,3.965,8.858,8.858,8.858
			c4.893,0,8.858-3.965,8.858-8.858c0-7.097,3.141-13.737,8.617-18.218c5.446-4.456,12.524-6.215,19.411-4.826
			c68.223,13.762,120.879,64.081,134.144,128.192c0.991,4.792,5.676,7.864,10.469,6.88c4.792-0.992,7.871-5.68,6.88-10.469
			c-7.202-34.803-25.04-66.623-51.589-92.022C366.359,25.482,333.024,8.21,296.387,0.819c-12.118-2.445-24.562,0.647-34.135,8.481
			c-2.334,1.91-4.426,4.043-6.255,6.355c-1.829-2.313-3.921-4.446-6.255-6.355c-9.574-7.837-22.018-10.927-34.135-8.481
			c-42.192,8.512-80.583,30.604-108.097,62.207c-26.206,30.099-41.394,67.64-43.242,106.486
			c-30.102,4.229-53.343,30.14-53.343,61.39c0,32.994,25.901,60.05,58.439,61.906c3.888,29.804,20.408,55.96,46.209,72.681
			c1.322,0.857,2.448,1.573,3.655,2.289c12.809,7.593,26.208,14.073,40.041,19.398c-23.527,19.771-40.704,46.529-48.676,76.113
			c-1.273,4.723,1.524,9.585,6.248,10.857c0.771,0.209,1.547,0.308,2.31,0.308c3.906,0,7.482-2.604,8.546-6.556
			c7.599-28.193,24.667-53.498,48.061-71.252c1.081-0.821,1.911-1.846,2.498-2.975c9.514,2.865,19.189,5.207,28.985,7.005
			c-4.18,7.821-2.983,17.78,3.604,24.368l36.198,36.198v41.902c0,4.893,3.965,8.858,8.858,8.858s8.858-3.965,8.858-8.858V461.44
			l36.397-36.397c6.587-6.588,7.783-16.547,3.603-24.368c9.796-1.798,19.471-4.141,28.985-7.005c0.586,1.13,1.416,2.154,2.498,2.975
			c23.395,17.754,40.463,43.059,48.061,71.252c1.064,3.953,4.642,6.556,8.546,6.556c0.763,0,1.539-0.099,2.31-0.308
			c4.724-1.272,7.521-6.133,6.248-10.857c-7.972-29.584-25.149-56.342-48.676-76.113c13.834-5.326,27.232-11.805,40.041-19.398
			c27.542-16.326,45.743-43.922,49.862-74.97c32.538-1.854,58.44-28.912,58.44-61.906
			C501.078,197.398,474.364,170.034,441.121,168.945z M247.044,436.185l-23.67-23.67c-1.153-1.152-1.153-3.025,0-4.175
			c1.387-1.387,2.207-3.119,2.483-4.92c7.024,0.788,14.092,1.309,21.188,1.544V436.185z M288.629,412.515l-23.869,23.87v-31.416
			c7.163-0.233,14.297-0.754,21.386-1.548c0.275,1.799,1.096,3.533,2.483,4.919C289.782,409.491,289.782,411.365,288.629,412.515z"
			/>
	</g>
</g>
<g>
	<g>
		<path d="M273.718,239.759c-4.892,0-8.858,3.966-8.858,8.858c0,4.885-3.973,8.858-8.858,8.858c-4.885,0-8.858-3.973-8.858-8.858
			c0-4.892-3.966-8.858-8.858-8.858s-8.858,3.966-8.858,8.858c0,14.654,11.921,26.575,26.575,26.575s26.575-11.921,26.575-26.575
			C282.576,243.725,278.61,239.759,273.718,239.759z"/>
	</g>
</g>
</svg>